<svg width="52" height="52" viewBox="0 0 52 52" fill="none" xmlns="http://www.w3.org/2000/svg">
<path d="M34.0613 33.6206C33.9109 33.6049 33.7652 33.5597 33.6324 33.4877C33.4995 33.4156 33.3822 33.318 33.2871 33.2006C33.192 33.0831 33.1209 32.9481 33.0781 32.8032C33.0352 32.6582 33.0213 32.5063 33.0372 32.356L34.278 20.5594L16.7727 34.735C16.5357 34.9269 16.2321 35.0168 15.9288 34.985C15.6254 34.9531 15.3472 34.802 15.1552 34.5649C14.9633 34.3279 14.8733 34.0243 14.9052 33.721C14.9371 33.4176 15.0882 33.1394 15.3252 32.9474L32.8305 18.7719L21.0338 17.533C20.7303 17.5011 20.4519 17.35 20.2598 17.1128C20.0677 16.8756 19.9778 16.5719 20.0097 16.2684C20.0416 15.9649 20.1927 15.6865 20.4299 15.4944C20.6671 15.3024 20.9708 15.2124 21.2743 15.2443L35.8319 16.7743C35.9822 16.79 36.1279 16.8352 36.2608 16.9073C36.3936 16.9794 36.5109 17.0769 36.6061 17.1944C36.7012 17.3119 36.7722 17.4469 36.8151 17.5918C36.858 17.7367 36.8719 17.8887 36.856 18.039L35.3259 32.5965C35.3102 32.7469 35.265 32.8926 35.1929 33.0254C35.1209 33.1583 35.0233 33.2756 34.9059 33.3707C34.7884 33.4658 34.6534 33.5369 34.5084 33.5797C34.3635 33.6226 34.2116 33.6365 34.0613 33.6206Z" fill="black"/>
</svg>
